<svg width="35" height="35" viewBox="0 0 35 35" fill="none" xmlns="http://www.w3.org/2000/svg">
<path d="M32.0834 17.5H2.91675" stroke="#FFEC16" stroke-width="2" stroke-linecap="round" stroke-linejoin="round"/>
<path d="M7.948 7.45225L2.91675 17.5002V26.2502C2.91675 27.0237 3.22404 27.7656 3.77102 28.3126C4.318 28.8595 5.05987 29.1668 5.83341 29.1668H29.1667C29.9403 29.1668 30.6822 28.8595 31.2291 28.3126C31.7761 27.7656 32.0834 27.0237 32.0834 26.2502V17.5002L27.0522 7.45225C26.8107 6.96631 26.4385 6.55737 25.9773 6.2714C25.5162 5.98544 24.9844 5.83378 24.4417 5.8335H10.5584C10.0158 5.83378 9.48401 5.98544 9.02285 6.2714C8.5617 6.55737 8.18946 6.96631 7.948 7.45225Z" stroke="#FFEC16" stroke-width="2" stroke-linecap="round" stroke-linejoin="round"/>
<path d="M8.75 23.3335H8.76458" stroke="#FFEC16" stroke-width="2" stroke-linecap="round" stroke-linejoin="round"/>
<path d="M14.5833 23.3335H14.5978" stroke="#FFEC16" stroke-width="2" stroke-linecap="round" stroke-linejoin="round"/>
</svg>
