<svg width="21" height="19" viewBox="0 0 21 19" fill="none" xmlns="http://www.w3.org/2000/svg">
<path d="M20.2529 0.4375C0.688477 0.4375 5.24121 13.4805 5.2002 15.4902L1.87793 18.8125H2.94434L5.85645 15.9004C7.45605 16.0645 10.9424 17.3359 14.6338 14.3828C18.3252 11.4707 18.1201 7.94336 20.2529 0.4375ZM17.0127 2.32422C19.0225 1.38086 17.2178 2.73438 17.2178 2.73438C15.3721 4.00586 14.5107 5.72852 13.5264 7.65625C12.2139 10.1172 10.2861 13.3574 7.62012 14.5059C4.9541 15.6543 6.18457 15.0391 7.37402 14.1777C8.52246 13.3164 10.1631 10.6094 11.1064 8.8457C12.3779 6.38477 13.6084 3.96484 17.0127 2.32422Z" fill="white"/>
</svg>
