<svg width="34" height="35" viewBox="0 0 34 35" fill="none" xmlns="http://www.w3.org/2000/svg">
<path d="M24.0834 30.25V27.4167C24.0834 25.9138 23.4864 24.4724 22.4237 23.4097C21.361 22.347 19.9196 21.75 18.4167 21.75H7.08341C5.58052 21.75 4.13918 22.347 3.07648 23.4097C2.01377 24.4724 1.41675 25.9138 1.41675 27.4167V30.25" stroke="#FFEC16" stroke-width="2" stroke-linecap="round" stroke-linejoin="round"/>
<path d="M12.7499 16.0833C15.8795 16.0833 18.4166 13.5463 18.4166 10.4167C18.4166 7.28705 15.8795 4.75 12.7499 4.75C9.6203 4.75 7.08325 7.28705 7.08325 10.4167C7.08325 13.5463 9.6203 16.0833 12.7499 16.0833Z" stroke="#FFEC16" stroke-width="2" stroke-linecap="round" stroke-linejoin="round"/>
<path d="M32.5833 30.2499V27.4166C32.5823 26.161 32.1644 24.9413 31.3952 23.949C30.626 22.9567 29.5489 22.248 28.3333 21.9341" stroke="#FFEC16" stroke-width="2" stroke-linecap="round" stroke-linejoin="round"/>
<path d="M22.6667 4.93408C23.8857 5.24618 24.9661 5.95508 25.7376 6.94902C26.5091 7.94297 26.9279 9.16542 26.9279 10.4237C26.9279 11.6819 26.5091 12.9044 25.7376 13.8983C24.9661 14.8923 23.8857 15.6012 22.6667 15.9132" stroke="#FFEC16" stroke-width="2" stroke-linecap="round" stroke-linejoin="round"/>
</svg>
